PathFileType        4      (X/Y/Z)      C:\Users\pc\Desktop\IMUTRC\Sujet_06\Sujet_06_Tpose.trc         
DataRate	CameraRate	NumFrames	NumMarkers	Units	OrigDataRate	OrigDataStartFrame	OrigNumFrames
60.0	60.0	4	64	mm	60.0	112	127
Frame#	Time	pHipOrigin			pRightASI			pLeftASI			pRightCSI			pLeftCSI			pRightIschialTub			pLeftIschialTub			pSacrum			pL5SpinalProcess			pL3SpinalProcess			pT12SpinalProcess			pIJ			pT4SpinalProcess			pT8SpinalProcess			pPX			pC7SpinalProcess			pTopOfHead			pRightAuricularis			pLeftAuricularis			pBackOfHead			pRightAcromion			pLeftAcromion			pRightArmLatEpicondyle			pRightArmMedEpicondyle			pLeftArmLatEpicondyle			pLeftArmMedEpicondyle			pRightUlnarStyloid			pRightRadialStyloid			pRightOlecranon			pLeftUlnarStyloid			pLeftRadialStyloid			pLeftOlecranon			pRightTopOfHand			pRightPinky			pRightBallHand			pLeftTopOfHand			pLeftPinky			pLeftBallHand			pRightGreaterTrochanter			pRightKneeLatEpicondyle			pRightKneeMedEpicondyle			pRightPatella			pLeftGreaterTrochanter			pLeftKneeLatEpicondyle			pLeftKneeMedEpicondyle			pLeftPatella			pRightTibialTub			pRightLatMalleolus			pRightMedMalleolus			pLeftTibialTub			pLeftLatMalleolus			pLeftMedMalleolus			pRightHeelFoot			pRightFirstMetatarsal			pRightFifthMetatarsal			pRightPivotFoot			pRightHeelCenter			pRightToe			pLeftHeelFoot			pLeftFirstMetatarsal			pLeftFifthMetatarsal			pLeftPivotFoot			pLeftHeelCenter			pLeftToe			
		X1	Y1	Z1	X2	Y2	Z2	X3	Y3	Z3	X4	Y4	Z4	X5	Y5	Z5	X6	Y6	Z6	X7	Y7	Z7	X8	Y8	Z8	X9	Y9	Z9	X10	Y10	Z10	X11	Y11	Z11	X12	Y12	Z12	X13	Y13	Z13	X14	Y14	Z14	X15	Y15	Z15	X16	Y16	Z16	X17	Y17	Z17	X18	Y18	Z18	X19	Y19	Z19	X20	Y20	Z20	X21	Y21	Z21	X22	Y22	Z22	X23	Y23	Z23	X24	Y24	Z24	X25	Y25	Z25	X26	Y26	Z26	X27	Y27	Z27	X28	Y28	Z28	X29	Y29	Z29	X30	Y30	Z30	X31	Y31	Z31	X32	Y32	Z32	X33	Y33	Z33	X34	Y34	Z34	X35	Y35	Z35	X36	Y36	Z36	X37	Y37	Z37	X38	Y38	Z38	X39	Y39	Z39	X40	Y40	Z40	X41	Y41	Z41	X42	Y42	Z42	X43	Y43	Z43	X44	Y44	Z44	X45	Y45	Z45	X46	Y46	Z46	X47	Y47	Z47	X48	Y48	Z48	X49	Y49	Z49	X50	Y50	Z50	X51	Y51	Z51	X52	Y52	Z52	X53	Y53	Z53	X54	Y54	Z54	X55	Y55	Z55	X56	Y56	Z56	X57	Y57	Z57	X58	Y58	Z58	X59	Y59	Z59	X60	Y60	Z60	X61	Y61	Z61	X62	Y62	Z62	X63	Y63	Z63	X64	Y64	Z64	
112	1.85	1143.71168	894.0984400000001	-1013.99999	1214.27575	980.61114	-905.8017499999999	1186.22223	982.5043200000001	-1134.58998	1172.56837	1038.38189	-918.4229599999999	1148.93227	1040.04559	-1111.35547	1102.1764	843.3267300000001	-960.35982	1090.30098	844.1299000000001	-1056.79739	1085.53934	911.5960300000002	-1006.71411	1111.41284	993.9207900000001	-1008.4351799999998	1114.91235	1108.88859	-1008.1483399999998	1104.81538	1213.30047	-1006.0256799999999	1233.20757	1446.50613	-1029.37493	1086.97357	1408.47037	-1003.0998499999998	1091.5631	1317.48288	-1003.6161699999999	1244.56667	1322.53136	-1030.98127	1085.08039	1464.92163	-1002.0098399999999	1124.66511	1735.64672	-992.8881399999999	1152.37442	1626.53057	-934.1421199999999	1115.42868	1638.0044	-1073.60656	1079.17137	1625.84214	-989.9049399999999	1144.91643	1455.28361	-830.7055099999999	1069.59071	1455.74256	-1181.40322	1193.79496	1403.88084	-559.9230499999999	1251.3936	1384.54743	-576.7895899999999	975.62002	1367.16457	-1437.49917	1031.6697	1339.85685	-1446.96508	1270.15332	1338.30788	-321.95574999999997	1248.4104	1384.66217	-312.66194999999993	1230.62596	1372.27043	-575.9290499999998	915.09555	1278.81606	-1671.79484	887.61572	1322.99032	-1669.90166	1016.58161	1333.2594	-1439.56446	1304.86166	1352.13385	-156.2736099999999	1314.0981	1333.54624	-235.21357999999992	1287.36407	1356.26443	-295.27908999999994	884.23094	1275.54602	-1835.75591	916.81663	1258.10579	-1762.95444	918.48033	1288.51145	-1700.42205	1157.88186	862.37329	-866.96282	1115.83026	485.2284000000001	-879.12509	1109.51965	482.5320500000001	-952.61499	1153.63654	482.24520000000007	-921.80775	1121.85402	861.5701200000001	-1159.14398	1091.73521	484.48260000000005	-1126.50093	1104.18432	483.96628000000004	-1053.75682	1139.12214	483.27785000000006	-1094.66104	1163.96299	449.83162000000004	-921.5209	1096.09527	86.05375000000005	-872.29816	1090.98941	83.81635000000006	-931.15892	1148.70279	449.77425000000005	-1096.66896	1067.52542	85.93901000000007	-1117.20712	1077.39292	85.25058000000007	-1058.92005	1060.58376	-0.05736999999994462	-904.36752	1212.4973	12.73595000000006	-957.54874	1220.81583	7.171150000000054	-881.82144	1238.08395	11.244360000000057	-922.95513	1097.64424	4.187950000000056	-908.15388	1313.69651	15.948630000000056	-930.87207	1041.88141	0.05737000000006611	-1079.74506	1202.91665	11.875420000000066	-1082.78562	1183.92746	11.47383000000007	-1156.73448	1214.61996	13.137540000000069	-1124.14879	1077.90924	4.646900000000066	-1089.03886	1288.2246	18.587610000000073	-1143.02325	
113	1.867	1143.82641	894.0984400000001	-1013.99999	1214.39049	980.55377	-905.8017499999999	1186.2796	982.5043200000001	-1134.64735	1172.74047	1038.38189	-918.4229599999999	1149.04701	1039.98823	-1111.35547	1102.23377	843.3267300000001	-960.35982	1090.41572	844.1299000000001	-1056.85476	1085.65408	911.5960300000002	-1006.71411	1111.52757	993.9207900000001	-1008.4351799999998	1115.02709	1108.88859	-1008.1483399999998	1104.93012	1213.30047	-1006.0256799999999	1233.43705	1446.44876	-1029.37493	1087.20305	1408.52774	-1003.0998499999998	1091.73521	1317.48288	-1003.6161699999999	1244.73878	1322.47399	-1030.98127	1085.30987	1464.92163	-1002.0672099999999	1124.95196	1735.64672	-993.0028799999999	1152.66127	1626.53057	-934.1994799999999	1115.77289	1637.94703	-1073.66393	1079.45821	1625.84214	-989.9623099999999	1145.08854	1455.22624	-830.7628799999999	1069.76282	1455.74256	-1181.46059	1194.02443	1403.82347	-559.9804199999999	1251.62308	1384.49006	-576.7895899999999	975.79213	1367.1072	-1437.49917	1031.78443	1339.85685	-1446.96508	1270.44016	1338.19315	-322.01311999999996	1248.63988	1384.54743	-312.7193199999999	1230.85544	1372.15569	-575.9864199999998	915.26766	1278.81606	-1671.85221	887.78783	1322.93295	-1669.90166	1016.69634	1333.20203	-1439.56446	1305.14851	1351.96175	-156.33096999999992	1314.32757	1333.4315	-235.3283199999999	1287.65091	1356.14969	-295.33645999999993	884.34568	1275.48865	-1835.75591	916.98874	1258.10579	-1762.95444	918.65244	1288.51145	-1700.47942	1157.9966	862.37329	-866.96282	1115.88763	485.2284000000001	-879.12509	1109.51965	482.5320500000001	-952.61499	1153.63654	482.1878300000001	-921.80775	1121.91139	861.5127500000001	-1159.14398	1091.79258	484.48260000000005	-1126.50093	1104.18432	483.96628000000004	-1053.75682	1139.12214	483.27785000000006	-1094.66104	1164.02036	449.83162000000004	-921.5209	1096.09527	86.05375000000005	-872.29816	1090.98941	83.81635000000006	-931.15892	1148.76016	449.71689000000003	-1096.66896	1067.52542	85.93901000000007	-1117.20712	1077.39292	85.25058000000007	-1058.92005	1060.58376	-0.05736999999994462	-904.36752	1212.4973	12.73595000000006	-957.54874	1220.81583	7.171150000000054	-881.82144	1238.08395	11.244360000000057	-922.95513	1097.64424	4.187950000000056	-908.15388	1313.69651	15.948630000000056	-930.87207	1041.88141	0.05737000000006611	-1079.74506	1202.91665	11.875420000000066	-1082.78562	1183.92746	11.47383000000007	-1156.73448	1214.61996	13.137540000000069	-1124.14879	1077.90924	4.646900000000066	-1089.03886	1288.2246	18.587610000000073	-1143.02325	
114	1.883	1143.88378	894.0984400000001	-1013.99999	1214.50523	980.55377	-905.8017499999999	1186.39433	982.4469500000001	-1134.64735	1172.85521	1038.38189	-918.4229599999999	1149.16175	1039.98823	-1111.35547	1102.34851	843.3267300000001	-960.35982	1090.47309	844.1299000000001	-1056.85476	1085.71145	911.5960300000002	-1006.71411	1111.64231	993.9207900000001	-1008.4925499999999	1115.1992	1108.88859	-1008.2057099999998	1105.10223	1213.30047	-1006.0830499999998	1233.66653	1446.44876	-1029.37493	1087.37516	1408.52774	-1003.1572199999999	1091.90732	1317.48288	-1003.6735399999999	1244.91088	1322.47399	-1030.98127	1085.53934	1464.92163	-1002.1245799999999	1125.29617	1735.64672	-993.0602499999999	1152.89074	1626.53057	-934.2568499999999	1116.05974	1637.94703	-1073.72129	1079.74506	1625.84214	-990.0196799999999	1145.31801	1455.22624	-830.7628799999999	1069.87756	1455.6852	-1181.46059	1194.25391	1403.7661	-559.9804199999999	1251.85255	1384.43269	-576.8469599999999	975.90687	1366.99247	-1437.49917	1031.95654	1339.85685	-1447.02245	1270.66964	1338.07841	-322.07048999999995	1248.86936	1384.43269	-312.7193199999999	1231.08491	1372.15569	-575.9864199999998	915.43977	1278.75869	-1671.85221	887.90257	1322.93295	-1669.90166	1016.86845	1333.20203	-1439.56446	1305.43535	1351.78964	-156.3883399999999	1314.61442	1333.2594	-235.38567999999992	1287.88039	1356.03496	-295.3938299999999	884.51779	1275.48865	-1835.81328	917.16084	1258.10579	-1763.01181	918.82455	1288.45408	-1700.47942	1158.05397	862.37329	-866.96282	1115.88763	485.2284000000001	-879.12509	1109.57702	482.5320500000001	-952.61499	1153.69391	482.1878300000001	-921.80775	1122.02613	861.5127500000001	-1159.14398	1091.79258	484.42523000000006	-1126.44356	1104.24169	483.96628000000004	-1053.69946	1139.12214	483.22048000000007	-1094.60367	1164.02036	449.83162000000004	-921.5209	1096.09527	85.99638000000006	-872.29816	1090.98941	83.81635000000006	-931.15892	1148.76016	449.71689000000003	-1096.61159	1067.52542	85.93901000000007	-1117.20712	1077.39292	85.25058000000007	-1058.92005	1060.58376	-0.05736999999994462	-904.36752	1212.4973	12.73595000000006	-957.54874	1220.81583	7.171150000000054	-881.82144	1238.08395	11.301730000000056	-922.95513	1097.64424	4.187950000000056	-908.15388	1313.69651	15.948630000000056	-930.87207	1041.88141	0.05737000000006611	-1079.74506	1202.91665	11.875420000000066	-1082.78562	1183.92746	11.47383000000007	-1156.73448	1214.61996	13.137540000000069	-1124.14879	1077.90924	4.646900000000066	-1089.03886	1288.2246	18.587610000000073	-1143.02325	
115	1.9	1143.94115	894.0984400000001	-1014.05736	1214.61996	980.55377	-905.8591199999998	1186.50907	982.4469500000001	-1134.64735	1172.96995	1038.38189	-918.4803299999999	1149.27648	1039.98823	-1111.41284	1102.40588	843.3267300000001	-960.41719	1090.53046	844.1299000000001	-1056.85476	1085.82619	911.5960300000002	-1006.77148	1111.75705	993.9207900000001	-1008.4925499999999	1115.31394	1108.88859	-1008.2057099999998	1105.27434	1213.30047	-1006.0830499999998	1233.896	1446.39139	-1029.4323	1087.60463	1408.52774	-1003.2145899999999	1092.07943	1317.54025	-1003.6735399999999	1245.08299	1322.41663	-1031.03864	1085.76882	1464.92163	-1002.1245799999999	1125.52565	1735.64672	-993.1176199999999	1153.12022	1626.53057	-934.2568499999999	1116.34658	1637.94703	-1073.77866	1079.97453	1625.84214	-990.1344199999999	1145.54749	1455.22624	-830.7628799999999	1070.04967	1455.6852	-1181.51796	1194.48339	1403.7661	-560.0377899999999	1252.02466	1384.37532	-576.8469599999999	976.02161	1366.9351	-1437.49917	1032.12865	1339.79948	-1447.02245	1270.89911	1338.02104	-322.12785999999994	1249.09883	1384.37532	-312.7766899999999	1231.31439	1372.09832	-576.0437899999998	915.55451	1278.70132	-1671.85221	888.01731	1322.87558	-1669.90166	1017.04056	1333.14466	-1439.56446	1305.66483	1351.6749	-156.3883399999999	1314.8439	1333.14466	-235.44304999999991	1288.10986	1355.92022	-295.4511999999999	884.6899	1275.48865	-1835.81328	917.33295	1258.04842	-1763.01181	918.93929	1288.45408	-1700.47942	1158.11134	862.37329	-866.96282	1115.945	485.2284000000001	-879.12509	1109.63439	482.5320500000001	-952.61499	1153.75128	482.1878300000001	-921.80775	1122.0835	861.5127500000001	-1159.14398	1091.79258	484.42523000000006	-1126.44356	1104.24169	483.96628000000004	-1053.69946	1139.17951	483.22048000000007	-1094.60367	1164.07773	449.83162000000004	-921.5209	1096.09527	85.99638000000006	-872.29816	1090.98941	83.81635000000006	-931.15892	1148.76016	449.71689000000003	-1096.55422	1067.52542	85.93901000000007	-1117.14975	1077.39292	85.25058000000007	-1058.92005	1060.58376	-0.05736999999994462	-904.36752	1212.4973	12.73595000000006	-957.54874	1220.81583	7.171150000000054	-881.82144	1238.08395	11.301730000000056	-922.95513	1097.64424	4.187950000000056	-908.15388	1313.69651	15.948630000000056	-930.87207	1041.88141	0.05737000000006611	-1079.74506	1202.91665	11.875420000000066	-1082.78562	1183.92746	11.47383000000007	-1156.73448	1214.61996	13.137540000000069	-1124.14879	1077.90924	4.646900000000066	-1089.03886	1288.2246	18.53024000000007	-1143.02325	
